<svg width="37" height="32" viewBox="0 0 37 32" fill="none" xmlns="http://www.w3.org/2000/svg">
<path d="M8.76001 9.48999H28.2699C28.3668 9.48968 28.4628 9.47015 28.5521 9.43237C28.6414 9.3946 28.7222 9.33938 28.7899 9.27002C28.9306 9.1295 29.0098 8.93884 29.01 8.73999C29.0083 8.54439 28.9291 8.35754 28.7899 8.22009C28.7222 8.15073 28.6414 8.09551 28.5521 8.05774C28.4628 8.01997 28.3668 8.00031 28.2699 8H8.76001C8.56116 8.00018 8.3705 8.0794 8.22998 8.22009C8.0908 8.35754 8.01173 8.54439 8.01001 8.73999C8.01018 8.93884 8.08929 9.1295 8.22998 9.27002C8.3705 9.41071 8.56116 9.48982 8.76001 9.48999ZM8.76001 16.74H20.2C20.2978 16.7418 20.395 16.7242 20.486 16.6881C20.5769 16.6521 20.6599 16.5983 20.73 16.53C20.7983 16.46 20.852 16.3771 20.8881 16.2861C20.9241 16.1952 20.9417 16.0978 20.9399 16C20.9417 15.9022 20.9241 15.805 20.8881 15.714C20.852 15.623 20.7983 15.5402 20.73 15.4701C20.5861 15.3357 20.3968 15.2606 20.2 15.26H8.75C8.55316 15.2606 8.36381 15.3357 8.21997 15.4701C8.07928 15.6106 8.00018 15.8012 8 16C8.00018 16.1988 8.07928 16.3895 8.21997 16.53C8.29004 16.5983 8.37289 16.6521 8.46387 16.6881C8.55484 16.7242 8.65216 16.7418 8.75 16.74H8.76001ZM8.76001 24H28.2699C28.3668 23.9997 28.4628 23.9802 28.5521 23.9424C28.6414 23.9046 28.7222 23.8494 28.7899 23.78C28.9291 23.6426 29.0083 23.4556 29.01 23.26C29.0098 23.0612 28.9306 22.8706 28.7899 22.7301C28.7222 22.6607 28.6414 22.6055 28.5521 22.5677C28.4628 22.53 28.3668 22.5103 28.2699 22.51H8.76001C8.56116 22.5102 8.3705 22.5894 8.22998 22.7301C8.08929 22.8706 8.01018 23.0612 8.01001 23.26C8.01173 23.4556 8.0908 23.6426 8.22998 23.78C8.3705 23.9207 8.56116 23.9998 8.76001 24Z" fill="#2D3650"/>
</svg>
