<svg width="179" height="90" viewBox="0 0 179 90" fill="none" xmlns="http://www.w3.org/2000/svg">
<path d="M23.2778 89.7365H16.9396L6.33818 73.6508V89.7365H0V63.5364H6.33818L16.9396 79.7688V63.5364H23.2778V89.7365Z" fill="#14223A"/>
<path d="M47.1026 80.5428H32.765C32.8384 82.104 33.232 83.2115 33.9459 83.8787C34.6908 84.5695 35.6794 84.9366 36.6947 84.8995C37.5283 84.9323 38.3486 84.6831 39.0231 84.1923C39.6281 83.7458 40.0614 83.1052 40.2507 82.3775H46.9558C46.6993 83.8095 46.0868 85.154 45.1745 86.2872C44.2424 87.4511 43.0493 88.3791 41.6918 88.9959C40.0934 89.6965 38.3603 90.0364 36.6156 89.9915C34.871 89.9465 33.1577 89.5178 31.5974 88.7357C30.0355 87.8932 28.7533 86.6133 27.908 85.0529C27.0359 83.2992 26.582 81.3672 26.582 79.4086C26.582 77.45 27.0359 75.518 27.908 73.7643C28.7519 72.2062 30.0348 70.9303 31.5974 70.0948C33.2799 69.2631 35.1314 68.8304 37.0082 68.8304C38.885 68.8304 40.7366 69.2631 42.4191 70.0948C43.9404 70.9006 45.1945 72.1315 46.0285 73.6375C46.904 75.2445 47.3455 77.0519 47.3094 78.8815C47.2958 79.4408 47.2265 79.9973 47.1026 80.5428ZM39.7637 74.8184C38.9977 74.1316 37.9966 73.766 36.9682 73.7976C35.9073 73.7604 34.8727 74.1331 34.0793 74.8384C33.2518 75.6349 32.7722 76.7259 32.745 77.8741H40.8712C40.9264 77.3161 40.8576 76.7528 40.6695 76.2245C40.4815 75.6962 40.179 75.2161 39.7837 74.8184H39.7637Z" fill="#14223A"/>
<path d="M63.5552 89.7365L59.332 83.8453L55.8826 89.7365H48.8773L55.7359 78.9549L48.6237 69.054H55.7425L59.9257 74.8785L63.375 69.054H70.3404L63.335 79.5821L70.6406 89.7365H63.5552Z" fill="#14223A"/>
<path d="M84.7182 84.2858V89.7366H81.8693C79.4475 89.7366 77.5594 89.1361 76.2184 87.9419C74.8773 86.7476 74.2168 84.7594 74.2168 81.9907V74.3915H71.4347V69.0541H74.2302V63.9769H80.5683V69.0541H84.7182V74.3915H80.5683V82.1041C80.5358 82.4066 80.5633 82.7126 80.6492 83.0045C80.735 83.2965 80.8776 83.5686 81.0687 83.8054C81.5483 84.1722 82.149 84.3439 82.75 84.2858H84.7182Z" fill="#14223A"/>
<path d="M113.594 83.5318C112.517 85.4945 110.876 87.0889 108.883 88.1086C106.589 89.2476 104.051 89.8066 101.491 89.7365H92.7242V63.5698H101.471C104.029 63.5024 106.566 64.0564 108.863 65.1844C110.854 66.1887 112.495 67.7698 113.573 69.7212C114.631 71.8694 115.181 74.2319 115.181 76.6264C115.181 79.021 114.631 81.3835 113.573 83.5318H113.594ZM108.383 83.4717C110.064 81.8438 110.905 79.5598 110.905 76.6198C110.905 73.6798 110.064 71.3936 108.383 69.7612C106.702 68.1333 104.293 67.3171 101.157 67.3127H96.9675V85.9203H101.157C104.28 85.9203 106.682 85.104 108.363 83.4717H108.383Z" fill="#14223A"/>
<path d="M132.381 70.4284C133.667 71.3144 134.638 72.5851 135.157 74.0578V69.3142H139.38V89.7365H135.157V84.9929C134.641 86.4672 133.669 87.7386 132.381 88.6223C130.98 89.564 129.319 90.0445 127.631 89.9967C125.959 90.0244 124.312 89.5878 122.874 88.7357C121.451 87.8693 120.311 86.6084 119.591 85.1063C118.808 83.3511 118.404 81.4506 118.404 79.5287C118.404 77.6067 118.808 75.7063 119.591 73.9511C120.311 72.4471 121.451 71.1841 122.874 70.315C124.305 69.4676 125.941 69.0313 127.604 69.054C129.301 69.0006 130.972 69.4813 132.381 70.4284ZM124.428 74.5582C123.334 75.9751 122.74 77.7149 122.74 79.5053C122.74 81.2957 123.334 83.0355 124.428 84.4525C125.007 85.0566 125.708 85.5298 126.485 85.8405C127.262 86.1512 128.096 86.2922 128.932 86.2538C130.051 86.2705 131.153 85.9822 132.121 85.4199C133.065 84.855 133.834 84.0398 134.343 83.0647C134.878 81.9582 135.157 80.7447 135.157 79.5153C135.157 78.2859 134.878 77.0725 134.343 75.9659C133.836 74.9858 133.067 74.1657 132.121 73.5975C131.153 73.0352 130.051 72.7469 128.932 72.7635C128.097 72.7256 127.263 72.8661 126.487 73.1756C125.71 73.485 125.009 73.9564 124.428 74.5582Z" fill="#14223A"/>
<path d="M154.725 86.067V89.7365H152.13C149.955 89.7365 148.307 89.2117 147.186 88.162C146.065 87.1123 145.502 85.3643 145.498 82.918V72.9103H142.569V69.3142H145.498V64.237H149.761V69.3142H154.685V72.9103H149.761V82.9914C149.761 84.1522 149.975 84.9528 150.428 85.3999C151.068 85.9147 151.887 86.1546 152.703 86.067H154.725Z" fill="#14223A"/>
<path d="M171.638 70.4283C172.924 71.3143 173.895 72.585 174.413 74.0577V69.3141H178.643V89.7364H174.413V84.9928C173.898 86.4671 172.926 87.7386 171.638 88.6222C170.239 89.5646 168.58 90.0453 166.894 89.9966C165.22 90.0252 163.571 89.5886 162.131 88.7356C160.711 87.866 159.571 86.606 158.848 85.1062C158.07 83.3498 157.667 81.4498 157.667 79.5286C157.667 77.6074 158.07 75.7074 158.848 73.951C159.57 72.4487 160.71 71.1863 162.131 70.3149C163.571 69.4619 165.22 69.0254 166.894 69.0539C168.58 69.0052 170.239 69.4859 171.638 70.4283ZM163.685 74.5581C162.595 75.9769 162.004 77.716 162.004 79.5052C162.004 81.2944 162.595 83.0336 163.685 84.4524C164.265 85.0554 164.966 85.528 165.743 85.8386C166.519 86.1493 167.353 86.2908 168.189 86.2538C169.308 86.2704 170.41 85.9821 171.378 85.4198C172.324 84.8585 173.094 84.0424 173.6 83.0646C174.135 81.9581 174.413 80.7446 174.413 79.5152C174.413 78.2859 174.135 77.0724 173.6 75.9659C173.097 74.983 172.327 74.162 171.378 73.5974C170.41 73.0351 169.308 72.7468 168.189 72.7634C167.352 72.7249 166.516 72.865 165.737 73.1745C164.958 73.4839 164.254 73.9556 163.672 74.5581H163.685Z" fill="#14223A"/>
<path d="M90.8584 26.6882L96.863 37.5499C96.9849 37.7703 97.0471 38.0188 97.0436 38.2707C97.0401 38.5226 96.9709 38.7692 96.8429 38.9861C96.7149 39.2031 96.5324 39.3829 96.3136 39.5078C96.0949 39.6327 95.8473 39.6983 95.5954 39.6982H83.5862C83.3343 39.6983 83.0867 39.6327 82.8679 39.5078C82.6491 39.3829 82.4667 39.2031 82.3387 38.9861C82.2106 38.7692 82.1414 38.5226 82.1379 38.2707C82.1344 38.0188 82.1967 37.7703 82.3185 37.5499L88.3231 26.6882C88.4482 26.4615 88.6318 26.2725 88.8547 26.1409C89.0777 26.0093 89.3319 25.9398 89.5908 25.9398C89.8497 25.9398 90.1039 26.0093 90.3268 26.1409C90.5498 26.2725 90.7333 26.4615 90.8584 26.6882ZM80.2903 44.1816H72.3242L89.5974 12.8977L106.871 44.1749H98.8979C98.7684 44.1745 98.6412 44.209 98.5297 44.2748C98.4182 44.3405 98.3264 44.4351 98.2641 44.5486L95.0816 50.3129C95.0201 50.4235 94.9885 50.5483 94.9899 50.6748C94.9914 50.8013 95.0258 50.9253 95.0898 51.0344C95.1538 51.1436 95.2452 51.2341 95.3549 51.2972C95.4646 51.3602 95.5889 51.3935 95.7155 51.3938H116.398C116.65 51.3926 116.898 51.3258 117.116 51.2001C117.335 51.0744 117.517 50.8941 117.645 50.6768C117.772 50.4595 117.842 50.2127 117.845 49.9606C117.849 49.7085 117.787 49.4597 117.666 49.2388L90.8584 0.748375C90.7333 0.521681 90.5498 0.332667 90.3268 0.201041C90.1039 0.0694145 89.8497 0 89.5908 0C89.3319 0 89.0777 0.0694145 88.8547 0.201041C88.6318 0.332667 88.4482 0.521681 88.3231 0.748375L61.5493 49.2388C61.4319 49.4606 61.3739 49.709 61.3809 49.9599C61.3879 50.2108 61.4597 50.4556 61.5893 50.6705C61.7189 50.8854 61.9019 51.0631 62.1206 51.1864C62.3392 51.3096 62.586 51.3742 62.837 51.3738H83.5195C83.646 51.3735 83.7703 51.3402 83.88 51.2772C83.9897 51.2142 84.0811 51.1236 84.1451 51.0144C84.2091 50.9053 84.2436 50.7813 84.245 50.6548C84.2464 50.5282 84.2148 50.4035 84.1533 50.2929L80.9708 44.5285C80.9027 44.4126 80.8035 44.318 80.6844 44.2555C80.5653 44.193 80.4311 44.1651 80.297 44.1749L80.2903 44.1816Z" fill="#1864D3"/>
</svg>
