<svg width="168" height="86" viewBox="0 0 168 86" fill="none" xmlns="http://www.w3.org/2000/svg">
<path d="M21.9742 85.3045H15.991L5.98323 70.1198V85.3045H0V60.5718H5.98323L15.991 75.8951V60.5718H21.9742V85.3045Z" fill="white"/>
<path d="M44.4648 76.6257H30.9302C30.9994 78.0995 31.371 79.145 32.0449 79.7748C32.7481 80.4269 33.6813 80.7735 34.6398 80.7384C35.4267 80.7694 36.201 80.5342 36.8378 80.0708C37.4089 79.6493 37.818 79.0446 37.9967 78.3577H44.3263C44.0841 79.7095 43.5059 80.9787 42.6447 82.0484C41.7648 83.1471 40.6385 84.0231 39.3571 84.6055C37.8482 85.2668 36.2121 85.5877 34.5651 85.5452C32.9182 85.5028 31.3008 85.098 29.828 84.3598C28.3535 83.5645 27.1431 82.3563 26.3451 80.8832C25.5219 79.2277 25.0934 77.404 25.0934 75.555C25.0934 73.7061 25.5219 71.8823 26.3451 70.2268C27.1418 68.756 28.3529 67.5515 29.828 66.7628C31.4162 65.9777 33.1641 65.5692 34.9358 65.5692C36.7075 65.5692 38.4553 65.9777 40.0436 66.7628C41.4797 67.5235 42.6636 68.6855 43.4509 70.1071C44.2773 71.6241 44.6941 73.3303 44.6601 75.0575C44.6472 75.5854 44.5818 76.1107 44.4648 76.6257ZM37.5369 71.2219C36.8138 70.5735 35.8688 70.2284 34.898 70.2583C33.8965 70.2231 32.9199 70.575 32.1709 71.2408C31.3897 71.9926 30.937 73.0225 30.9113 74.1064H38.5824C38.6345 73.5797 38.5695 73.0479 38.392 72.5492C38.2146 72.0506 37.929 71.5973 37.5558 71.2219H37.5369Z" fill="white"/>
<path d="M59.996 85.3045L56.0093 79.7433L52.7532 85.3045H46.1401L52.6146 75.1268L45.9008 65.7803H52.6209L56.5698 71.2786L59.826 65.7803H66.4012L59.7882 75.7188L66.6846 85.3045H59.996Z" fill="white"/>
<path d="M79.9737 80.159V85.3045H77.2844C74.9982 85.3045 73.2158 84.7377 71.9499 83.6103C70.684 82.483 70.0604 80.6061 70.0604 77.9924V70.8188H67.4341V65.7803H70.073V60.9875H76.0563V65.7803H79.9737V70.8188H76.0563V78.0995C76.0256 78.3851 76.0515 78.6739 76.1326 78.9495C76.2136 79.2251 76.3482 79.482 76.5286 79.7055C76.9813 80.0518 77.5484 80.2139 78.1157 80.159H79.9737Z" fill="white"/>
<path d="M106.593 79.4473C105.577 81.3001 104.028 82.8052 102.147 83.7678C99.9813 84.843 97.5852 85.3707 95.1684 85.3046H86.8926V60.6033H95.1495C97.5646 60.5396 99.9592 61.0626 102.128 62.1274C104.007 63.0755 105.556 64.568 106.574 66.4102C107.573 68.4381 108.092 70.6683 108.092 72.9287C108.092 75.1891 107.573 77.4194 106.574 79.4473H106.593ZM101.674 79.3906C103.261 77.8539 104.055 75.6978 104.055 72.9224C104.055 70.1471 103.261 67.9889 101.674 66.4479C100.087 64.9112 97.8136 64.1407 94.8535 64.1365H90.8982V81.702H94.8535C97.801 81.702 100.068 80.9315 101.655 79.3906H101.674Z" fill="white"/>
<path d="M124.329 67.0777C125.542 67.9141 126.46 69.1136 126.949 70.5039V66.0259H130.936V85.3045H126.949V80.8266C126.462 82.2183 125.544 83.4186 124.329 84.2527C123.006 85.1417 121.438 85.5953 119.844 85.5502C118.266 85.5763 116.712 85.1642 115.354 84.3598C114.011 83.5419 112.935 82.3517 112.255 80.9336C111.516 79.2767 111.134 77.4827 111.134 75.6684C111.134 73.8541 111.516 72.0601 112.255 70.4032C112.934 68.9834 114.011 67.7911 115.354 66.9707C116.705 66.1708 118.25 65.7589 119.819 65.7803C121.421 65.7299 122.999 66.1837 124.329 67.0777ZM116.821 70.9763C115.788 72.3138 115.228 73.9562 115.228 75.6463C115.228 77.3364 115.788 78.9789 116.821 80.3164C117.368 80.8867 118.03 81.3334 118.763 81.6267C119.496 81.92 120.284 82.0531 121.073 82.0169C122.129 82.0326 123.17 81.7605 124.083 81.2297C124.974 80.6964 125.7 79.9269 126.18 79.0064C126.686 77.9618 126.949 76.8163 126.949 75.6558C126.949 74.4952 126.686 73.3498 126.18 72.3052C125.702 71.3799 124.976 70.6058 124.083 70.0693C123.17 69.5385 122.129 69.2664 121.073 69.2821C120.284 69.2463 119.497 69.3789 118.764 69.6711C118.031 69.9632 117.369 70.4081 116.821 70.9763Z" fill="white"/>
<path d="M145.421 81.8406V85.3045H142.971C140.918 85.3045 139.362 84.8091 138.304 83.8182C137.246 82.8273 136.715 81.1772 136.711 78.8679V69.4207H133.946V66.026H136.711V61.2331H140.735V66.026H145.383V69.4207H140.735V78.9371C140.735 80.033 140.937 80.7888 141.365 81.2108C141.97 81.6967 142.742 81.9232 143.513 81.8406H145.421Z" fill="white"/>
<path d="M161.387 67.0777C162.6 67.9141 163.518 69.1136 164.007 70.5039V66.0259H168V85.3045H164.007V80.8266C163.52 82.2183 162.603 83.4186 161.387 84.2527C160.066 85.1424 158.501 85.5961 156.909 85.5502C155.329 85.5771 153.772 85.165 152.412 84.3598C151.072 83.5388 149.996 82.3494 149.313 80.9336C148.579 79.2756 148.199 77.482 148.199 75.6684C148.199 73.8547 148.579 72.0612 149.313 70.4032C149.995 68.985 151.071 67.7933 152.412 66.9707C153.772 66.1654 155.329 65.7534 156.909 65.7803C158.501 65.7344 160.066 66.1881 161.387 67.0777ZM153.88 70.9763C152.851 72.3156 152.293 73.9573 152.293 75.6463C152.293 77.3353 152.851 78.9771 153.88 80.3164C154.427 80.8857 155.089 81.3318 155.822 81.625C156.555 81.9183 157.342 82.0519 158.131 82.0169C159.187 82.0326 160.228 81.7605 161.141 81.2296C162.035 80.6998 162.762 79.9294 163.239 79.0064C163.744 77.9618 164.007 76.8163 164.007 75.6558C164.007 74.4952 163.744 73.3497 163.239 72.3052C162.764 71.3773 162.037 70.6023 161.141 70.0693C160.228 69.5385 159.187 69.2664 158.131 69.2821C157.341 69.2457 156.552 69.378 155.817 69.6701C155.081 69.9622 154.417 70.4075 153.867 70.9763H153.88Z" fill="white"/>
<path d="M87.078 25.7872L92.7463 36.0406C92.8614 36.2487 92.9201 36.4832 92.9168 36.721C92.9135 36.9588 92.8482 37.1915 92.7273 37.3964C92.6065 37.6012 92.4343 37.7709 92.2277 37.8888C92.0212 38.0067 91.7875 38.0686 91.5497 38.0685H80.213C79.9752 38.0686 79.7415 38.0067 79.535 37.8888C79.3284 37.7709 79.1562 37.6012 79.0354 37.3964C78.9145 37.1915 78.8492 36.9588 78.8459 36.721C78.8425 36.4832 78.9013 36.2487 79.0164 36.0406L84.6847 25.7872C84.8028 25.5732 84.9761 25.3947 85.1865 25.2705C85.397 25.1462 85.6369 25.0807 85.8813 25.0807C86.1258 25.0807 86.3657 25.1462 86.5762 25.2705C86.7866 25.3947 86.9599 25.5732 87.078 25.7872ZM77.1017 42.3009H69.5818L85.8876 12.7689L102.194 42.2946H94.6672C94.545 42.2942 94.425 42.3268 94.3197 42.3888C94.2144 42.4509 94.1278 42.5402 94.0689 42.6473L91.0647 48.0888C91.0066 48.1932 90.9768 48.311 90.9781 48.4304C90.9795 48.5499 91.012 48.6669 91.0724 48.7699C91.1328 48.873 91.2191 48.9585 91.3227 49.018C91.4263 49.0775 91.5436 49.1089 91.663 49.1092H111.187C111.425 49.108 111.659 49.045 111.865 48.9264C112.071 48.8077 112.243 48.6375 112.364 48.4323C112.485 48.2272 112.55 47.9942 112.554 47.7562C112.557 47.5182 112.499 47.2834 112.384 47.0749L87.078 1.30003C86.9599 1.08603 86.7866 0.907604 86.5762 0.783349C86.3657 0.659094 86.1258 0.593567 85.8813 0.593567C85.6369 0.593567 85.397 0.659094 85.1865 0.783349C84.9761 0.907604 84.8028 1.08603 84.6847 1.30003L59.4103 47.0749C59.2994 47.2842 59.2447 47.5187 59.2513 47.7556C59.2579 47.9924 59.3256 48.2235 59.448 48.4264C59.5704 48.6292 59.7432 48.797 59.9495 48.9134C60.1559 49.0297 60.3889 49.0906 60.6258 49.0903H80.15C80.2695 49.09 80.3868 49.0586 80.4904 48.9991C80.594 48.9396 80.6802 48.8541 80.7407 48.751C80.8011 48.648 80.8336 48.531 80.8349 48.4115C80.8363 48.2921 80.8065 48.1744 80.7484 48.07L77.7442 42.6284C77.6798 42.5189 77.5862 42.4297 77.4738 42.3707C77.3613 42.3117 77.2347 42.2853 77.1081 42.2946L77.1017 42.3009Z" fill="white"/>
</svg>
